# Blender 3.3.1
# www.blender.org
mtllib untitled.mtl
g Cube_Cube
v -1.636541 2.457118 1.425621
v -1.636541 1.857118 1.425621
v -1.636541 2.457118 2.025621
v -1.636541 1.857118 2.025621
v -2.236541 2.457118 1.425621
v -2.236541 1.857118 1.425621
v -2.236541 2.457118 2.025621
v -2.236541 1.857118 2.025621
v -1.941957 -2.138499 1.622121
v -1.941957 1.861501 1.622121
v -1.922448 -2.138499 1.624042
v -1.922448 1.861501 1.624042
v -1.903689 -2.138499 1.629733
v -1.903689 1.861501 1.629733
v -1.886400 -2.138499 1.638974
v -1.886400 1.861501 1.638974
v -1.871247 -2.138499 1.651410
v -1.871247 1.861501 1.651410
v -1.858810 -2.138499 1.666564
v -1.858810 1.861501 1.666564
v -1.849569 -2.138499 1.683852
v -1.849569 1.861501 1.683852
v -1.843879 -2.138499 1.702612
v -1.843879 1.861501 1.702612
v -1.841957 -2.138499 1.722121
v -1.841957 1.861501 1.722121
v -1.843879 -2.138499 1.741630
v -1.843879 1.861501 1.741630
v -1.849569 -2.138499 1.760389
v -1.849569 1.861501 1.760389
v -1.858810 -2.138499 1.777678
v -1.858810 1.861501 1.777678
v -1.871247 -2.138499 1.792831
v -1.871247 1.861501 1.792831
v -1.886400 -2.138499 1.805268
v -1.886400 1.861501 1.805268
v -1.903689 -2.138499 1.814509
v -1.903689 1.861501 1.814509
v -1.922448 -2.138499 1.820199
v -1.922448 1.861501 1.820199
v -1.941957 -2.138499 1.822121
v -1.941957 1.861501 1.822121
v -1.961466 -2.138499 1.820199
v -1.961466 1.861501 1.820199
v -1.980226 -2.138499 1.814509
v -1.980226 1.861501 1.814509
v -1.997514 -2.138499 1.805268
v -1.997514 1.861501 1.805268
v -2.012668 -2.138499 1.792831
v -2.012668 1.861501 1.792831
v -2.025104 -2.138499 1.777678
v -2.025104 1.861501 1.777678
v -2.034345 -2.138499 1.760389
v -2.034345 1.861501 1.760389
v -2.040036 -2.138499 1.741630
v -2.040036 1.861501 1.741630
v -2.041957 -2.138499 1.722121
v -2.041957 1.861501 1.722121
v -2.040036 -2.138499 1.702612
v -2.040036 1.861501 1.702612
v -2.034345 -2.138499 1.683852
v -2.034345 1.861501 1.683852
v -2.025104 -2.138499 1.666564
v -2.025104 1.861501 1.666564
v -2.012668 -2.138499 1.651410
v -2.012668 1.861501 1.651410
v -1.997514 -2.138499 1.638974
v -1.997514 1.861501 1.638974
v -1.980226 -2.138499 1.629733
v -1.980226 1.861501 1.629733
v -1.961466 -2.138499 1.624042
v -1.961466 1.861501 1.624042
vn -0.0000 1.0000 -0.0000
vn -0.0000 -0.0000 1.0000
vn -1.0000 -0.0000 -0.0000
vn -0.0000 -1.0000 -0.0000
vn 1.0000 -0.0000 -0.0000
vn -0.0000 -0.0000 -1.0000
vn 0.0980 -0.0000 -0.9952
vn 0.2903 -0.0000 -0.9569
vn 0.4714 -0.0000 -0.8819
vn 0.6344 -0.0000 -0.7730
vn 0.7730 -0.0000 -0.6344
vn 0.8819 -0.0000 -0.4714
vn 0.9569 -0.0000 -0.2903
vn 0.9952 -0.0000 -0.0980
vn 0.9952 -0.0000 0.0980
vn 0.9569 -0.0000 0.2903
vn 0.8819 -0.0000 0.4714
vn 0.7730 -0.0000 0.6344
vn 0.6344 -0.0000 0.7730
vn 0.4714 -0.0000 0.8819
vn 0.2903 -0.0000 0.9569
vn 0.0980 -0.0000 0.9952
vn -0.0980 -0.0000 0.9952
vn -0.2903 -0.0000 0.9569
vn -0.4714 -0.0000 0.8819
vn -0.6344 -0.0000 0.7730
vn -0.7730 -0.0000 0.6344
vn -0.8819 -0.0000 0.4714
vn -0.9569 -0.0000 0.2903
vn -0.9952 -0.0000 0.0980
vn -0.9952 -0.0000 -0.0980
vn -0.9569 -0.0000 -0.2903
vn -0.8819 -0.0000 -0.4714
vn -0.7730 -0.0000 -0.6344
vn -0.6344 -0.0000 -0.7730
vn -0.4714 -0.0000 -0.8819
vn -0.2903 -0.0000 -0.9569
vn -0.0980 -0.0000 -0.9952
vt 0.625000 0.500000
vt 0.375000 0.500000
vt 0.625000 0.750000
vt 0.375000 0.750000
vt 0.875000 0.500000
vt 0.625000 0.250000
vt 0.125000 0.500000
vt 0.375000 0.250000
vt 0.875000 0.750000
vt 0.625000 1.000000
vt 0.625000 0.000000
vt 0.375000 1.000000
vt 0.375000 0.000000
vt 0.125000 0.750000
vt 0.000000 0.000000
vt 0.000000 0.000000
vt 0.000000 0.000000
vt 0.000000 0.000000
vt 0.000000 0.000000
vt 0.000000 0.000000
vt 0.000000 0.000000
vt 0.000000 0.000000
vt 0.000000 0.000000
vt 0.000000 0.000000
vt 0.000000 0.000000
vt 0.000000 0.000000
vt 0.000000 0.000000
vt 0.000000 0.000000
vt 0.000000 0.000000
vt 0.000000 0.000000
vt 0.000000 0.000000
vt 0.000000 0.000000
vt 0.000000 0.000000
vt 0.000000 0.000000
vt 0.000000 0.000000
vt 0.000000 0.000000
vt 0.000000 0.000000
vt 0.000000 0.000000
vt 0.000000 0.000000
vt 0.000000 0.000000
vt 0.000000 0.000000
vt 0.000000 0.000000
vt 0.000000 0.000000
vt 0.000000 0.000000
vt 0.000000 0.000000
vt 0.000000 0.000000
vt 0.000000 0.000000
vt 0.000000 0.000000
vt 0.000000 0.000000
vt 0.000000 0.000000
vt 0.000000 0.000000
vt 0.000000 0.000000
vt 0.000000 0.000000
vt 0.000000 0.000000
vt 0.000000 0.000000
vt 0.000000 0.000000
vt 0.000000 0.000000
vt 0.000000 0.000000
vt 0.000000 0.000000
vt 0.000000 0.000000
vt 0.000000 0.000000
vt 0.000000 0.000000
vt 0.000000 0.000000
vt 0.000000 0.000000
vt 0.000000 0.000000
vt 0.000000 0.000000
vt 0.000000 0.000000
vt 0.000000 0.000000
vt 0.000000 0.000000
vt 0.000000 0.000000
vt 0.000000 0.000000
vt 0.000000 0.000000
vt 0.000000 0.000000
vt 0.000000 0.000000
vt 0.000000 0.000000
vt 0.000000 0.000000
vt 0.000000 0.000000
vt 0.000000 0.000000
s 0
usemtl Material
f 1/1/1 5/5/1 7/9/1 3/3/1
f 4/4/2 3/3/2 7/10/2 8/12/2
f 8/13/3 7/11/3 5/6/3 6/8/3
f 6/7/4 2/2/4 4/4/4 8/14/4
f 2/2/5 1/1/5 3/3/5 4/4/5
f 6/8/6 5/6/6 1/1/6 2/2/6
f 9/15/7 10/16/7 12/18/7 11/17/7
f 11/17/8 12/18/8 14/20/8 13/19/8
f 13/19/9 14/20/9 16/22/9 15/21/9
f 15/21/10 16/22/10 18/24/10 17/23/10
f 17/23/11 18/24/11 20/26/11 19/25/11
f 19/25/12 20/26/12 22/28/12 21/27/12
f 21/27/13 22/28/13 24/30/13 23/29/13
f 23/29/14 24/30/14 26/32/14 25/31/14
f 25/31/15 26/32/15 28/34/15 27/33/15
f 27/33/16 28/34/16 30/36/16 29/35/16
f 29/35/17 30/36/17 32/38/17 31/37/17
f 31/37/18 32/38/18 34/40/18 33/39/18
f 33/39/19 34/40/19 36/42/19 35/41/19
f 35/41/20 36/42/20 38/44/20 37/43/20
f 37/43/21 38/44/21 40/46/21 39/45/21
f 39/45/22 40/46/22 42/48/22 41/47/22
f 41/47/23 42/48/23 44/50/23 43/49/23
f 43/49/24 44/50/24 46/52/24 45/51/24
f 45/51/25 46/52/25 48/54/25 47/53/25
f 47/53/26 48/54/26 50/56/26 49/55/26
f 49/55/27 50/56/27 52/58/27 51/57/27
f 51/57/28 52/58/28 54/60/28 53/59/28
f 53/59/29 54/60/29 56/62/29 55/61/29
f 55/61/30 56/62/30 58/64/30 57/63/30
f 57/63/31 58/64/31 60/66/31 59/65/31
f 59/65/32 60/66/32 62/68/32 61/67/32
f 61/67/33 62/68/33 64/70/33 63/69/33
f 63/69/34 64/70/34 66/72/34 65/71/34
f 65/71/35 66/72/35 68/74/35 67/73/35
f 67/73/36 68/74/36 70/76/36 69/75/36
f 12/18/1 10/16/1 72/78/1 70/76/1 68/74/1 66/72/1 64/70/1 62/68/1 60/66/1 58/64/1 56/62/1 54/60/1 52/58/1 50/56/1 48/54/1 46/52/1 44/50/1 42/48/1 40/46/1 38/44/1 36/42/1 34/40/1 32/38/1 30/36/1 28/34/1 26/32/1 24/30/1 22/28/1 20/26/1 18/24/1 16/22/1 14/20/1
f 69/75/37 70/76/37 72/78/37 71/77/37
f 71/77/38 72/78/38 10/16/38 9/15/38
f 9/15/4 11/17/4 13/19/4 15/21/4 17/23/4 19/25/4 21/27/4 23/29/4 25/31/4 27/33/4 29/35/4 31/37/4 33/39/4 35/41/4 37/43/4 39/45/4 41/47/4 43/49/4 45/51/4 47/53/4 49/55/4 51/57/4 53/59/4 55/61/4 57/63/4 59/65/4 61/67/4 63/69/4 65/71/4 67/73/4 69/75/4 71/77/4
